<?xml version="1.0" encoding="UTF-8"?>
<!DOCTYPE svg PUBLIC "-//W3C//DTD SVG 1.1//EN" "http://www.w3.org/Graphics/SVG/1.1/DTD/svg11.dtd">
<svg version="1.2" width="271.2mm" height="271.2mm" viewBox="0 0 27120 27120" preserveAspectRatio="xMidYMid" fill-rule="evenodd" stroke-width="28.222" stroke-linejoin="round" xmlns="http://www.w3.org/2000/svg" xmlns:ooo="http://xml.openoffice.org/svg/export" xmlns:xlink="http://www.w3.org/1999/xlink" xmlns:presentation="http://sun.com/xmlns/staroffice/presentation" xmlns:smil="http://www.w3.org/2001/SMIL20/" xmlns:anim="urn:oasis:names:tc:opendocument:xmlns:animation:1.0" xmlns:svg="urn:oasis:names:tc:opendocument:xmlns:svg-compatible:1.0" xml:space="preserve">
 <defs class="ClipPathGroup">
  <clipPath id="presentation_clip_path" clipPathUnits="userSpaceOnUse">
   <rect x="0" y="0" width="27120" height="27120"/>
  </clipPath>
  <clipPath id="presentation_clip_path_shrink" clipPathUnits="userSpaceOnUse">
   <rect x="27" y="27" width="27066" height="27066"/>
  </clipPath>
 </defs>
 <defs class="TextShapeIndex">
  <g ooo:slide="id1" ooo:id-list="id3 id4 id5 id6 id7 id8 id9 id10"/>
 </defs>
 <defs class="EmbeddedBulletChars">
  <g id="bullet-char-template-57356" transform="scale(0.00048828125,-0.00048828125)">
   <path d="M 580,1141 L 1163,571 580,0 -4,571 580,1141 Z"/>
  </g>
  <g id="bullet-char-template-57354" transform="scale(0.00048828125,-0.00048828125)">
   <path d="M 8,1128 L 1137,1128 1137,0 8,0 8,1128 Z"/>
  </g>
  <g id="bullet-char-template-10146" transform="scale(0.00048828125,-0.00048828125)">
   <path d="M 174,0 L 602,739 174,1481 1456,739 174,0 Z M 1358,739 L 309,1346 659,739 1358,739 Z"/>
  </g>
  <g id="bullet-char-template-10132" transform="scale(0.00048828125,-0.00048828125)">
   <path d="M 2015,739 L 1276,0 717,0 1260,543 174,543 174,936 1260,936 717,1481 1274,1481 2015,739 Z"/>
  </g>
  <g id="bullet-char-template-10007" transform="scale(0.00048828125,-0.00048828125)">
   <path d="M 0,-2 C -7,14 -16,27 -25,37 L 356,567 C 262,823 215,952 215,954 215,979 228,992 255,992 264,992 276,990 289,987 310,991 331,999 354,1012 L 381,999 492,748 772,1049 836,1024 860,1049 C 881,1039 901,1025 922,1006 886,937 835,863 770,784 769,783 710,716 594,584 L 774,223 C 774,196 753,168 711,139 L 727,119 C 717,90 699,76 672,76 641,76 570,178 457,381 L 164,-76 C 142,-110 111,-127 72,-127 30,-127 9,-110 8,-76 1,-67 -2,-52 -2,-32 -2,-23 -1,-13 0,-2 Z"/>
  </g>
  <g id="bullet-char-template-10004" transform="scale(0.00048828125,-0.00048828125)">
   <path d="M 285,-33 C 182,-33 111,30 74,156 52,228 41,333 41,471 41,549 55,616 82,672 116,743 169,778 240,778 293,778 328,747 346,684 L 369,508 C 377,444 397,411 428,410 L 1163,1116 C 1174,1127 1196,1133 1229,1133 1271,1133 1292,1118 1292,1087 L 1292,965 C 1292,929 1282,901 1262,881 L 442,47 C 390,-6 338,-33 285,-33 Z"/>
  </g>
  <g id="bullet-char-template-9679" transform="scale(0.00048828125,-0.00048828125)">
   <path d="M 813,0 C 632,0 489,54 383,161 276,268 223,411 223,592 223,773 276,916 383,1023 489,1130 632,1184 813,1184 992,1184 1136,1130 1245,1023 1353,916 1407,772 1407,592 1407,412 1353,268 1245,161 1136,54 992,0 813,0 Z"/>
  </g>
  <g id="bullet-char-template-8226" transform="scale(0.00048828125,-0.00048828125)">
   <path d="M 346,457 C 273,457 209,483 155,535 101,586 74,649 74,723 74,796 101,859 155,911 209,963 273,989 346,989 419,989 480,963 531,910 582,859 608,796 608,723 608,648 583,586 532,535 482,483 420,457 346,457 Z"/>
  </g>
  <g id="bullet-char-template-8211" transform="scale(0.00048828125,-0.00048828125)">
   <path d="M -4,459 L 1135,459 1135,606 -4,606 -4,459 Z"/>
  </g>
  <g id="bullet-char-template-61548" transform="scale(0.00048828125,-0.00048828125)">
   <path d="M 173,740 C 173,903 231,1043 346,1159 462,1274 601,1332 765,1332 928,1332 1067,1274 1183,1159 1299,1043 1357,903 1357,740 1357,577 1299,437 1183,322 1067,206 928,148 765,148 601,148 462,206 346,322 231,437 173,577 173,740 Z"/>
  </g>
 </defs>
 <g>
  <g id="id2" class="Master_Slide">
   <g id="bg-id2" class="Background"/>
   <g id="bo-id2" class="BackgroundObjects"/>
  </g>
 </g>
 <g class="SlideGroup">
  <g>
   <g id="container-id1">
    <g id="id1" class="Slide" clip-path="url(#presentation_clip_path)">
     <g class="Page">
      <g class="com.sun.star.drawing.ClosedBezierShape">
       <g id="id3">
        <rect class="BoundingBox" stroke="none" fill="none" x="2777" y="17605" width="21564" height="4117"/>
        <path fill="rgb(255,255,255)" stroke="none" d="M 24333,17822 C 24333,17822 24297,17603 24276,17605 L 20292,17989 C 19974,18020 19728,18273 19706,18590 L 19597,20159 16514,20379 16304,18957 C 16257,18641 15981,18402 15661,18402 L 11457,18402 C 11137,18402 10861,18641 10814,18957 L 10604,20379 7521,20159 7412,18590 C 7390,18272 7144,18020 6826,17989 L 2840,17605 C 2819,17603 2804,17822 2783,17822 L 2778,18685 6154,19229 6265,20812 C 6287,21133 6546,21392 6867,21415 L 11112,21718 C 11128,21719 11144,21720 11160,21720 11479,21720 11755,21481 11802,21165 L 12017,19701 15101,19701 15316,21165 C 15363,21481 15639,21719 15959,21719 15974,21719 15990,21719 16005,21718 L 20251,21415 C 20572,21392 20831,21133 20853,20812 L 20964,19229 24339,18682 24333,17822 Z"/>
       </g>
      </g>
      <g class="com.sun.star.drawing.ClosedBezierShape">
       <g id="id4">
        <rect class="BoundingBox" stroke="none" fill="none" x="1282" y="2046" width="24555" height="18569"/>
        <path fill="rgb(184,115,64)" stroke="none" d="M 2783,11321 L 2783,16553 2783,17217 2783,17822 C 2795,17822 2807,17823 2819,17824 L 6805,18208 C 7014,18228 7178,18396 7192,18606 L 7315,20365 10792,20613 11032,18989 C 11063,18779 11244,18623 11457,18623 L 15661,18623 C 15874,18623 16055,18779 16086,18989 L 16326,20613 19803,20365 19926,18606 C 19940,18396 20104,18228 20313,18208 L 24298,17824 C 24309,17823 24321,17822 24333,17822 L 24333,17303 24335,17303 24335,11321 C 24896,10614 25428,9835 25835,9179 25212,8119 24450,7173 23635,6295 22879,6676 22145,7107 21451,7566 21104,7221 20713,6939 20329,6644 19952,6341 19527,6119 19124,5860 19244,4966 19303,4086 19327,3167 18287,2644 17177,2296 16055,2047 15607,2800 15198,3616 14841,4413 14418,4342 13992,4316 13567,4311 L 13567,4310 C 13564,4310 13561,4311 13559,4311 13557,4311 13554,4310 13552,4310 L 13552,4311 C 13125,4316 12700,4342 12277,4413 11920,3616 11511,2800 11062,2047 9941,2296 8831,2644 7791,3167 7815,4086 7874,4966 7995,5860 7591,6119 7166,6341 6789,6644 6405,6939 6014,7221 5667,7566 4973,7107 4239,6676 3483,6295 2668,7173 1906,8119 1283,9179 1772,9947 2297,10719 2783,11321 Z"/>
       </g>
      </g>
      <g class="com.sun.star.drawing.ClosedBezierShape">
       <g id="id5">
        <rect class="BoundingBox" stroke="none" fill="none" x="2776" y="18682" width="21566" height="6520"/>
        <path fill="rgb(184,115,64)" stroke="none" d="M 20757,19028 L 20633,20797 C 20619,21010 20449,21180 20236,21195 L 15990,21498 C 15979,21499 15969,21499 15959,21499 15748,21499 15566,21344 15534,21133 L 15291,19481 11827,19481 11584,21133 C 11551,21355 11352,21515 11129,21498 L 6882,21195 C 6669,21180 6500,21010 6485,20797 L 6361,19028 2777,18682 C 2778,19068 2783,19490 2783,19574 2783,23359 7586,25179 13552,25200 L 13559,25200 13566,25200 C 19532,25179 24333,23359 24333,19574 24333,19488 24338,19068 24340,18682 L 20757,19028 Z"/>
       </g>
      </g>
      <g class="com.sun.star.drawing.ClosedBezierShape">
       <g id="id6">
        <rect class="BoundingBox" stroke="none" fill="none" x="5506" y="11558" width="4806" height="4806"/>
        <path fill="rgb(255,255,255)" stroke="none" d="M 7909,16362 C 6582,16362 5507,15287 5507,13959 5507,12634 6582,11559 7909,11559 9235,11559 10311,12634 10311,13959 10311,15287 9235,16362 7909,16362 Z"/>
       </g>
      </g>
      <g class="com.sun.star.drawing.ClosedBezierShape">
       <g id="id7">
        <rect class="BoundingBox" stroke="none" fill="none" x="6543" y="12507" width="3191" height="3191"/>
        <path fill="rgb(65,64,66)" stroke="none" d="M 8138,15696 C 7258,15696 6544,14983 6544,14102 6544,13222 7258,12508 8138,12508 9019,12508 9733,13222 9733,14102 9733,14983 9019,15696 8138,15696 Z"/>
       </g>
      </g>
      <g class="com.sun.star.drawing.ClosedBezierShape">
       <g id="id8">
        <rect class="BoundingBox" stroke="none" fill="none" x="12785" y="12963" width="1549" height="3619"/>
        <path fill="rgb(255,255,255)" stroke="none" d="M 12786,15878 L 12786,13666 C 12786,13279 13132,12964 13559,12964 13985,12964 14332,13279 14332,13666 L 14332,15878 C 14332,16266 13985,16580 13559,16580 13132,16580 12786,16266 12786,15878 Z"/>
       </g>
      </g>
      <g class="com.sun.star.drawing.ClosedBezierShape">
       <g id="id9">
        <rect class="BoundingBox" stroke="none" fill="none" x="16807" y="11558" width="4806" height="4806"/>
        <path fill="rgb(255,255,255)" stroke="none" d="M 19210,16362 C 20536,16362 21611,15287 21611,13959 21611,12634 20536,11559 19210,11559 17883,11559 16807,12634 16807,13959 16807,15287 17883,16362 19210,16362 Z"/>
       </g>
      </g>
      <g class="com.sun.star.drawing.ClosedBezierShape">
       <g id="id10">
        <rect class="BoundingBox" stroke="none" fill="none" x="17385" y="12507" width="3191" height="3191"/>
        <path fill="rgb(65,64,66)" stroke="none" d="M 18979,15696 C 19860,15696 20574,14983 20574,14102 20574,13222 19860,12508 18979,12508 18099,12508 17385,13222 17385,14102 17385,14983 18099,15696 18979,15696 Z"/>
       </g>
      </g>
     </g>
    </g>
   </g>
  </g>
 </g>
</svg>